<mxfile host="app.diagrams.net" modified="2023-09-08T05:02:08.333Z" agent="Mozilla/5.0 (Windows NT 10.0; Win64; x64) AppleWebKit/537.36 (KHTML, like Gecko) Chrome/116.0.0.0 Safari/537.36" version="21.7.2" etag="5r22lhufaPVL897-84fE" type="github">
  <diagram name="페이지-1" id="7j74QEU29KAD0azJKp-h">
    <mxGraphModel>
      <root>
        <mxCell id="0" />
        <mxCell id="1" parent="0" />
      </root>
    </mxGraphModel>
  </diagram>
</mxfile>
